<svg xmlns="http://www.w3.org/2000/svg" viewBox="-175.4 80 1000 320"><path fill="#D6D1B1" d="M-89.6 275.5h-25.9c-.6-3.5-.9-7.5-.9-11.9 0-2.1.1-4.2.3-6.2.2-2 .5-4.1.8-6.2h27.8l2.3-27.8h-25.7c-.3-2.1-.6-4.2-.8-6.2-.2-2-.3-4.1-.3-6.2 0-2.1.1-4.2.3-6.1.2-1.9.5-3.9.8-6.1h27.8l3-34.7c2.4-.5 4.8-.8 7-.9 2.2-.2 4.6-.2 7.2-.2 2.3 0 4.6.1 6.8.2 2.2.2 4.5.5 6.8.9l-3 34.7h28l3-34.7c2.6-.5 5-.8 7.1-.9 2.1-.2 4.5-.2 7.1-.2 2.3 0 4.6.1 6.8.2 2.2.2 4.6.5 7 .9l-3 34.7h24.1c.3 2.1.6 4.1.8 5.9.2 1.8.3 3.7.3 5.9 0 2.1-.1 4.3-.3 6.4-.2 2.1-.5 4.3-.8 6.4h-26l-2.3 27.8h23.9c.3 2.1.6 4.1.8 6 .2 1.8.3 3.8.3 6 0 2.1-.1 4.2-.3 6.2-.2 2-.5 4.1-.8 6.2H-5.5l-3.2 40.2c-2.6.5-5 .8-7.2.9-2.2.2-4.6.2-7 .2-2.4 0-4.7-.1-6.9-.2-2.1-.2-4.4-.5-6.9-.9l3.2-40.2h-27.8l-3.2 40.2c-2.6.5-5 .8-7.2.9-2.2.2-4.6.2-7.2.2-2.3 0-4.5-.1-6.7-.2-2.1-.2-4.5-.5-7.1-.9l3.1-40.3zm58.1-24.4l2.3-27.8h-28l-2.3 27.8h28z"/><path fill="#FE5F55" d="M56 157.5c5.7-.9 11.2-1.4 16.8-1.4 5.5 0 11.2.5 17 1.4v64.7h55.3v-64.7c5.7-.9 11.2-1.4 16.8-1.4 5.5 0 11.2.5 17 1.4v165.1c-5.8.9-11.4 1.4-16.8 1.4-5.7 0-11.3-.5-17-1.4v-71.4H89.7v71.4c-5.8.9-11.4 1.4-16.8 1.4-5.7 0-11.3-.5-17-1.4V157.5zm193.3 0c3.2-.5 6.3-.8 9.2-1 2.9-.2 6.1-.3 9.6-.3 3.1 0 6 .1 9 .3 2.9.2 6.1.6 9.6 1l51.7 165.1c-6.3.9-12.4 1.4-18.4 1.4-5.8 0-11.5-.5-17-1.4l-9.2-33.1h-54.6l-9.4 33.1c-5.5.9-10.8 1.4-15.8 1.4-5.7 0-11.2-.5-16.8-1.4l52.1-165.1zM286 261.7l-19-69.3-20 69.3h39zm101-15.6c-5.2-2-9.9-4.2-14-6.5-4.1-2.4-7.7-5.2-10.6-8.5-2.9-3.3-5.2-7.2-6.8-11.8-1.6-4.6-2.4-10.1-2.4-16.5 0-7.8 1.3-14.7 4-20.7s6.5-11 11.4-15c4.9-4.1 10.8-7.1 17.7-9.2 6.9-2.1 14.6-3.1 23.2-3.1 7.8 0 15.1.7 21.9 2.1 6.8 1.4 14 3.4 21.5 6-.9 8.9-3.4 17.6-7.3 26.2-2.3-.9-4.6-1.8-7-2.8-2.4-.9-4.9-1.7-7.6-2.3-2.7-.6-5.7-1.1-9.1-1.5-3.4-.4-7.2-.6-11.5-.6-2.6 0-5.2.2-7.9.7-2.7.5-5.1 1.3-7.2 2.5-2.1 1.2-3.9 3-5.3 5.4-1.4 2.4-2.1 5.5-2.1 9.3 0 3.1.5 5.6 1.6 7.7 1.1 2.1 2.5 3.8 4.4 5.3 1.8 1.5 3.9 2.7 6.2 3.7 2.3 1 4.6 2 6.9 2.9l13.8 5.3c5.8 2.3 11.1 4.7 15.8 7.1 4.7 2.4 8.8 5.5 12.1 9.1 3.3 3.6 5.9 8 7.7 13.1 1.8 5.1 2.8 11.4 2.8 18.9 0 7.8-1.4 14.9-4.2 21.3-2.8 6.4-6.9 11.9-12.3 16.5s-12 8.2-19.9 10.8c-7.9 2.6-17 3.9-27.2 3.9-5 0-9.6-.2-13.5-.5-4-.3-7.8-.8-11.4-1.5-3.6-.7-7.2-1.6-10.7-2.6-3.5-1.1-7.2-2.4-11-3.9.5-4.4 1.3-9.1 2.5-13.9 1.2-4.8 2.7-9.7 4.4-14.6 6.4 2.6 12.5 4.6 18.1 5.9 5.7 1.3 11.7 2 18.1 2 9.6 0 17.2-1.8 22.7-5.4 5.5-3.6 8.3-9.1 8.3-16.4 0-3.7-.7-6.7-2-9.2-1.3-2.4-3-4.5-5.1-6.2-2.1-1.7-4.4-3.1-7-4.2-2.6-1.1-5.3-2.3-8-3.3l-14-5.5zm96.2-88.6c5.7-.9 11.2-1.4 16.8-1.4s11.2.5 17 1.4v64.7h55.3v-64.7c5.7-.9 11.2-1.4 16.8-1.4s11.2.5 17 1.4v165.1c-5.8.9-11.4 1.4-16.8 1.4-5.7 0-11.3-.5-17-1.4v-71.4H517v71.4c-5.8.9-11.4 1.4-16.8 1.4-5.7 0-11.3-.5-17-1.4V157.5zm193.3 0c3.2-.5 6.3-.8 9.2-1 2.9-.2 6.1-.3 9.6-.3 3.1 0 6 .1 9 .3 2.9.2 6.1.6 9.6 1l51.7 165.1c-6.3.9-12.4 1.4-18.4 1.4-5.8 0-11.5-.5-17-1.4l-9.2-33.1h-54.6l-9.4 33.1c-5.5.9-10.8 1.4-15.8 1.4-5.7 0-11.2-.5-16.8-1.4l52.1-165.1zm36.8 104.2l-19.1-69.3-20 69.3h39.1z"/></svg>